<?xml version="1.0" encoding="UTF-8"?><svg id="Layer_1" xmlns="http://www.w3.org/2000/svg" viewBox="0 0 291.32 291.32"><defs><style>.cls-1{fill:#fff;}</style></defs><path class="cls-1" d="M145.66,0C65.21,0,0,65.22,0,145.66s65.21,145.66,145.66,145.66,145.66-65.22,145.66-145.66S226.11,0,145.66,0Zm-50.07,72.83c7.54,0,13.66,6.12,13.66,13.66s-6.12,13.66-13.66,13.66-13.66-6.12-13.66-13.66,6.12-13.66,13.66-13.66Zm13.77,127.31h-27.28V109.23h27.28v90.91Zm109.2,0h-27.28v-49.57c0-10.17-2.95-20.34-14.91-20.34s-21.51,10.17-21.51,20.59v49.32h-27.38V108.93h27.38v12.65c8.4-10.67,20.25-15.5,33.48-15.5s30.21,6.61,30.22,42.45v51.6Z"/></svg>