<?xml version="1.0" encoding="UTF-8"?><svg id="Capa_1" xmlns="http://www.w3.org/2000/svg" viewBox="0 0 112.2 112.2"><defs><style>.cls-1{fill:#fff;}</style></defs><path class="cls-1" d="M56.1,0C25.12,0,0,25.12,0,56.1s25.12,56.1,56.1,56.1,56.1-25.12,56.1-56.1S87.08,0,56.1,0Zm27.67,47.26c.03,.57,.04,1.15,.04,1.73,0,17.72-13.49,38.15-38.15,38.15-7.57,0-14.62-2.22-20.55-6.03,1.05,.12,2.12,.19,3.2,.19,6.28,0,12.07-2.14,16.66-5.74-5.87-.11-10.82-3.99-12.53-9.31,.82,.16,1.66,.24,2.52,.24,1.22,0,2.41-.16,3.53-.47-6.13-1.23-10.76-6.65-10.76-13.15,0-.06,0-.11,0-.17,1.81,1.01,3.88,1.61,6.07,1.68-3.6-2.4-5.97-6.51-5.97-11.16,0-2.46,.66-4.76,1.82-6.74,6.61,8.11,16.49,13.45,27.64,14.01-.23-.98-.35-2.01-.35-3.06,0-7.4,6.01-13.41,13.41-13.41,3.86,0,7.34,1.63,9.79,4.23,3.05-.6,5.92-1.72,8.52-3.25-1,3.13-3.13,5.76-5.9,7.42,2.71-.32,5.3-1.04,7.7-2.11-1.8,2.69-4.07,5.05-6.69,6.94Z"/></svg>