<?xml version="1.0" encoding="utf-8"?>
<!-- Generator: Adobe Illustrator 28.1.0, SVG Export Plug-In . SVG Version: 6.00 Build 0)  -->
<svg version="1.1" id="Layer_1" xmlns="http://www.w3.org/2000/svg" xmlns:xlink="http://www.w3.org/1999/xlink" x="0px" y="0px"
	 viewBox="0 0 800 800" style="enable-background:new 0 0 800 800;" xml:space="preserve">
<style type="text/css">
	.st0{fill:#191A1E;}
	.st1{opacity:0.6;fill:#F2F4F9;enable-background:new    ;}
</style>
<path class="st0" d="M616.1,558.9c-21.2,5.1-43.4,7.8-66.1,7.8c-156.5,0-283.3-126.9-283.3-283.3c0-16.1,1.3-31.9,3.9-47.3
	c-1.2,1.2-2.5,2.2-3.8,3.2c-9.4,7.1-21,9.7-44.3,15l-21.2,4.8c-82,18.6-123,27.8-132.7,59.2c-9.8,31.4,18.2,64,74.1,129.4l14.5,16.9
	c15.9,18.6,23.8,27.9,27.4,39.4c3.6,11.5,2.4,23.9,0,48.7l-2.2,22.6c-8.5,87.2-12.7,130.8,12.9,150.2c25.5,19.4,63.9,1.7,140.7-33.6
	l19.9-9.1c21.8-10,32.7-15.1,44.3-15.1c11.6,0,22.5,5,44.3,15.1l19.9,9.1c76.8,35.3,115.1,53,140.7,33.6
	c25.5-19.4,21.3-63,12.9-150.2L616.1,558.9z"/>
<path class="st1" d="M305.1,180.3l-10.9,19.6c-12,21.5-18,32.3-27.4,39.4c1.3-1,2.6-2.1,3.8-3.2c-2.6,15.4-3.9,31.2-3.9,47.3
	c0,156.5,126.9,283.3,283.3,283.3c22.8,0,44.9-2.7,66.1-7.8l-0.6-6.3c-2.4-24.8-3.6-37.2,0-48.7c3.6-11.5,11.5-20.8,27.4-39.4
	l14.5-16.9c55.9-65.4,83.8-98,74.1-129.4c-9.8-31.4-50.7-40.6-132.7-59.2l-21.2-4.8c-23.3-5.3-35-7.9-44.3-15
	c-9.4-7.1-15.4-17.9-27.4-39.4l-10.9-19.6C452.7,104.5,431.6,66.7,400,66.7C368.4,66.7,347.3,104.5,305.1,180.3z"/>
</svg>
